<?xml version="1.0" encoding="UTF-8"?>
<svg version="1.1" xmlns="http://www.w3.org/2000/svg" width="512" height="512">
<path d="M0 0 C3.92549083 0.00771695 7.85096303 0.00051825 11.77645493 -0.0041585 C18.36251287 -0.00958167 24.94846914 -0.00251576 31.53451157 0.01186323 C39.09575648 0.02818308 46.65675851 0.02289211 54.21799755 0.00638402 C60.76726418 -0.00732992 67.31645867 -0.00910264 73.86573505 -0.00129998 C77.75222426 0.00332267 81.63860019 0.00415393 85.52508163 -0.00590944 C118.15670196 -0.07878466 149.18139396 2.70128158 174.62142563 25.40297651 C175.82798813 26.3968437 175.82798813 26.3968437 177.05892563 27.41078901 C190.42714545 38.73200017 200.151417 53.35911547 206.37142563 69.65297651 C206.65340805 70.37831587 206.93539047 71.10365522 207.22591782 71.85097456 C213.20272057 88.34073771 213.06233343 104.91024329 213.01359963 122.22270393 C213.00674007 125.83547976 213.01732386 129.44821404 213.0255394 133.06098127 C213.03880371 140.11544459 213.03603255 147.16981157 213.02730148 154.22427849 C213.02049958 159.95942138 213.01961897 165.69453744 213.02287292 171.42968321 C213.02333262 172.24891043 213.02379232 173.06813765 213.02426595 173.91218994 C213.02522521 175.57685709 213.02619785 177.24152423 213.02718373 178.90619136 C213.03571536 194.47380404 213.02593689 210.0413635 213.00978263 225.60896744 C212.99636636 238.95113764 212.99872263 252.29322957 213.01253891 265.63539839 C213.02860813 281.16028843 213.03490744 296.68513205 213.02570212 312.21002924 C213.02474654 313.86640763 213.02380343 315.52278601 213.02287292 317.17916441 C213.0224101 317.99397823 213.02194727 318.80879206 213.02147042 319.64829721 C213.01888568 325.37605322 213.02324004 331.10377963 213.03031158 336.83153105 C213.03874105 343.81192556 213.03641547 350.79221891 213.02046935 357.77260189 C213.01260837 361.33037668 213.0094579 364.88798305 213.01941681 368.44575644 C213.03006491 372.30820827 213.01731463 376.17038682 213.00237656 380.03282881 C213.00906872 381.14839812 213.01576089 382.26396744 213.02265584 383.41334188 C212.92533216 396.40865413 208.80562722 407.01962924 199.99642563 416.65297651 C191.12021003 425.0370119 179.35490482 428.98105244 167.28158188 428.64516401 C152.79833206 427.32657152 142.24404854 419.73847735 130.78158188 411.40297651 C125.65424462 407.68422033 120.44862033 404.07838191 115.24642563 400.46547651 C114.2457103 399.77010786 113.24499496 399.07473921 112.21395493 398.35829878 C106.07449237 394.09610557 99.92294453 389.85202571 93.75863266 385.6258769 C87.86096618 381.57826742 81.99106219 377.49109095 76.12142563 373.40297651 C69.27797173 368.63733071 62.43050497 363.87800536 55.55892563 359.15297651 C54.93501938 358.7237187 54.31111313 358.29446089 53.66830063 357.85219526 C51.98843682 356.69891128 50.30502796 355.55079598 48.62142563 354.40297651 C47.59146469 353.60375776 46.56150375 352.80453901 45.50033188 351.98110151 C42.79546186 350.10226488 42.79546186 350.10226488 40.17611313 350.86391401 C36.94855282 352.80834637 33.82401018 354.85704022 30.74642563 357.02797651 C30.0651561 357.50235151 29.38388657 357.97672651 28.6819725 358.46547651 C27.16326061 359.52360646 25.64609128 360.58395277 24.13021469 361.64614058 C20.45713151 364.21829964 16.77451547 366.7767012 13.09286118 369.33657026 C11.1016597 370.72129866 9.11094171 372.10672253 7.12069321 373.49282026 C1.57139966 377.35702401 -3.98776277 381.20580005 -9.56607437 385.02797651 C-15.53026418 389.11523702 -21.45905536 393.2513131 -27.37857437 397.40297651 C-44.6565909 409.51189189 -44.6565909 409.51189189 -53.37857437 415.40297651 C-54.01053726 415.8301396 -54.64250015 416.25730268 -55.29361343 416.69741011 C-67.7179745 425.04293813 -78.98601527 430.33216117 -94.33951187 427.94203901 C-105.17279877 425.57486835 -114.58668751 420.31381981 -121.37857437 411.40297651 C-125.94574325 403.58745302 -129.49714158 396.39347687 -129.51000214 387.19407129 C-129.51384328 386.15941475 -129.51768443 385.1247582 -129.52164197 384.05874842 C-129.52077549 382.9286149 -129.51990901 381.79848138 -129.51901627 380.63410139 C-129.52198739 379.42830327 -129.52495851 378.22250515 -129.52801967 376.98016769 C-129.53519262 373.63607107 -129.53787842 370.29202583 -129.53861713 366.94792521 C-129.54047038 363.3396239 -129.54801934 359.73133366 -129.55475235 356.12303877 C-129.56832823 348.23201787 -129.57435993 340.34100207 -129.57876301 332.44997144 C-129.58152808 327.51783008 -129.58576605 322.58569067 -129.59026718 317.65355062 C-129.6024615 303.98548172 -129.61275879 290.31741438 -129.61614227 276.64934015 C-129.61636184 275.77466021 -129.61658141 274.89998027 -129.61680762 273.99879487 C-129.6170259 273.12206317 -129.61724418 272.24533147 -129.61746907 271.34203213 C-129.61791253 269.56555331 -129.61835909 267.78907448 -129.61880875 266.01259565 C-129.61903018 265.13140754 -129.61925161 264.25021943 -129.61947975 263.34232865 C-129.62342215 249.08504125 -129.64085837 234.82780514 -129.66416827 220.57053753 C-129.68793266 205.91629913 -129.70034652 191.2620864 -129.70151019 176.60782844 C-129.70242438 168.38686396 -129.70811132 160.16596621 -129.7263298 151.9450202 C-129.74179997 144.93965716 -129.74681096 137.93438146 -129.7385917 130.92900457 C-129.73470879 127.36042727 -129.73549768 123.79202545 -129.74964905 120.22347021 C-129.81487667 102.7710613 -129.59463445 86.3413902 -123.25357437 69.84047651 C-122.95354507 69.04947554 -122.65351578 68.25847456 -122.34439468 67.44350386 C-111.84244579 40.83535505 -90.60333318 20.03231869 -64.50357437 8.67641401 C-62.95669937 8.04606245 -62.95669937 8.04606245 -61.37857437 7.40297651 C-60.45044937 7.02399214 -59.52232437 6.64500776 -58.56607437 6.25453901 C-39.7641576 -0.69172468 -19.72851136 -0.05108359 0 0 Z M-70.70132828 65.94887495 C-83.68996236 82.4780324 -86.55599923 98.75520643 -86.49882889 119.20380354 C-86.49968331 120.34026266 -86.50053774 121.47672179 -86.50141805 122.64761907 C-86.5030555 126.42766023 -86.49758006 130.20765629 -86.49209976 133.98769331 C-86.49125933 136.70849336 -86.49193245 139.42929254 -86.49254227 142.1500926 C-86.49306477 147.99342703 -86.48994659 153.83675024 -86.48430443 159.68008184 C-86.47615231 168.1283953 -86.47357041 176.57670337 -86.47231644 185.02502034 C-86.47013174 198.73426076 -86.46348746 212.4434952 -86.45401382 226.15273237 C-86.44482463 239.46425551 -86.43775118 252.77577702 -86.43350601 266.08730268 C-86.43324329 266.90882351 -86.43298056 267.73034433 -86.43270988 268.57675972 C-86.43140477 272.6983864 -86.43014108 276.82001308 -86.42889798 280.94163978 C-86.41854349 315.09542299 -86.40094104 349.24919911 -86.37857437 383.40297651 C-83.21213183 382.16998147 -80.49100482 380.96210601 -77.73404312 378.96938276 C-77.06614761 378.49146284 -76.39825211 378.01354292 -75.71011734 377.52114058 C-75.00258316 377.00777143 -74.29504898 376.49440229 -73.56607437 375.96547651 C-72.03152492 374.8669721 -70.49635519 373.76933373 -68.96060562 372.67250776 C-68.18926285 372.12030561 -67.41792007 371.56810347 -66.62320328 370.99916792 C-63.35959734 368.6783657 -60.05985742 366.41237693 -56.75357437 364.15297651 C-50.10611234 359.60170494 -43.48893776 355.00794876 -36.87857437 350.40297651 C-29.77654723 345.45632533 -22.66764209 340.52093279 -15.52408218 335.63442183 C-11.56604218 332.92224418 -7.63101807 330.17938959 -3.70669937 327.41860151 C-2.70251968 326.71412886 -1.69834 326.0096562 -0.66373062 325.28383589 C1.29476231 323.9088579 3.25068975 322.53021496 5.20345688 321.14711714 C20.93031266 310.12062261 33.29753369 303.86924265 52.69173813 306.87953901 C62.77833771 309.6610804 71.18332309 316.46976182 79.62142563 322.40297651 C81.52284285 323.72332222 83.42522117 325.0422847 85.32845688 326.36000776 C89.27771 329.09735368 93.22139566 331.84243655 97.16048813 334.59438276 C101.63355617 337.71783148 106.12070986 340.81954497 110.62142563 343.90297651 C118.14191017 349.05816326 125.62289525 354.26957836 133.10457993 359.48085737 C139.50985477 363.94019896 145.92698843 368.38139338 152.36800766 372.78896284 C156.88919924 375.88552995 161.36162207 379.04545767 165.80111313 382.25844526 C167.54524274 383.58040423 167.54524274 383.58040423 169.62142563 383.40297651 C169.66726354 348.49753987 169.70247549 313.59211013 169.72355629 278.68664986 C169.72605752 274.5601096 169.72864618 270.43356941 169.73128891 266.30702925 C169.73181353 265.48555423 169.73233815 264.66407921 169.73287867 263.817711 C169.74156701 250.53912337 169.75732829 237.26055316 169.77573122 223.98197585 C169.79447406 210.34378484 169.8055516 196.70560292 169.80960262 183.06739956 C169.8123386 174.66070551 169.8209611 166.25406072 169.83725856 157.84738184 C169.84787963 152.07246076 169.85101473 146.29756492 169.84842838 140.5226348 C169.84715501 137.19726124 169.8501381 133.87204206 169.85983658 130.54667234 C169.93300905 104.15199187 168.7871436 81.52553063 149.62142563 61.40297651 C134.97430372 48.4943261 119.34641243 43.93218216 100.0948143 43.99892378 C98.67897127 43.99320605 97.26313283 43.98623643 95.84730148 43.97812605 C92.03714141 43.96033155 88.22721335 43.96133719 84.41702437 43.96706843 C81.21920219 43.97018112 78.02142325 43.96404473 74.82360727 43.95802969 C67.26976655 43.94403028 59.71603904 43.94550661 52.16219711 43.95693159 C44.4084063 43.96840095 36.65496187 43.95434665 28.90121669 43.92753512 C22.20862677 43.90527229 15.51614474 43.89876462 8.82352048 43.90461153 C4.84199521 43.90795804 0.86069167 43.90572199 -3.12080193 43.8883605 C-6.86966616 43.8727239 -10.61802356 43.87702847 -14.36686897 43.89566565 C-16.3713285 43.90102055 -18.37581172 43.88696461 -20.38022232 43.87197065 C-39.6687158 44.02596824 -57.90280321 50.99127792 -70.70132828 65.94887495 Z " fill="#000000" transform="translate(214.3785743713379,41.597023487091064)"/>
</svg>
